<svg xmlns="http://www.w3.org/2000/svg" xmlns:xlink="http://www.w3.org/1999/xlink" width="1495" height="918.512" viewBox="0 0 1495 918.512"><defs><style>.a{fill:#fff;}.a,.e,.f{stroke:#4b4b4b;}.b{font-size:50px;}.b,.c,.g{font-family:HelveticaNeue, Helvetica Neue;}.c{fill:#3c3c3c;font-size:20px;}.d{fill:url(#c);}.e,.l{fill:none;}.f{fill:url(#d);}.g{fill:#175ab5;font-size:25px;}.h{fill:#696969;}.i{fill:#ff5e95;}.j{fill:#5a5a5a;}.k{stroke:none;}.m{filter:url(#a);}</style><filter id="a" x="0" y="0" width="1495" height="918.512" filterUnits="userSpaceOnUse"><feOffset dx="5" dy="3" input="SourceAlpha"/><feGaussianBlur stdDeviation="5" result="b"/><feFlood flood-color="#0b0b0b" flood-opacity="0.161"/><feComposite operator="in" in2="b"/><feComposite in="SourceGraphic"/></filter><pattern id="c" preserveAspectRatio="none" width="100%" height="100%" viewBox="0 0 1024 768"><image width="1024" height="768" xlink:href="../Downloads/38054606355_26429c884f_b.jpg"/></pattern><pattern id="d" preserveAspectRatio="xMidYMid slice" width="100%" height="100%" viewBox="0 0 1587 1904"><image width="1587" height="1904" xlink:href="../Pictures/tushar_single_intro2k19.jpeg"/></pattern></defs><g transform="translate(9.6 12)"><g class="m" transform="matrix(1, 0, 0, 1, -9.6, -12)"><g class="a" transform="translate(10 12)"><rect class="k" width="1465" height="888.512" rx="31"/><rect class="l" x="0.5" y="0.5" width="1464" height="887.512" rx="30.5"/></g></g><text class="b" transform="translate(50.5 109)"><tspan x="352.2" y="48">A CATCHY TITLE TEST TEST</tspan></text><text class="c" transform="translate(50.5 202)"><tspan x="0" y="19">Lsdfdi jfkd jkfjd kksf skdjfkd d df kdj ej fjdkcneuifj dc. Jifjdkcfjeijf dsjf djdsjfks ud d jdskjf eifa idjckd ifh idj fkdjf kdjf kdsjf kdjf kjfj8dn oirjfij ick </tspan><tspan x="0" y="43" xml:space="preserve">ejifndheijfjadhf idshf f dsjfi djfkjfdsk jduiejfiaehiofewah ff hief oa hfs  sfsdkfjaekjf khrihafdjkeauriakjijjkdhfaei dciaej ifjheifhdjnie idsihjdhafi hedisfhdhf; </tspan><tspan x="0" y="67">kehf ahfjadsfuk hds fhaehfsdbhfu eafhihcuehf kjdbckuefhkajbfijhfjaehf idkhaoeifhjkadhfadsu hkedhfkjsdbf kausdhfkajhuhbzjkdshf ihfudshf adsjhf </tspan><tspan x="0" y="91">jksdhfjkdhf ukadhfahvksjhf uehbcxfu ehf bkaewufbdfukhkrvh.</tspan><tspan x="0" y="115"></tspan><tspan x="0" y="139" xml:space="preserve">       </tspan><tspan x="0" y="163"></tspan><tspan x="0" y="187"></tspan><tspan x="0" y="211"></tspan><tspan x="0" y="235"></tspan><tspan x="0" y="259"></tspan><tspan x="0" y="283"></tspan><tspan x="0" y="307"></tspan><tspan x="0" y="331"></tspan><tspan x="0" y="355"></tspan><tspan x="0" y="379"></tspan><tspan x="0" y="403"></tspan><tspan x="0" y="427">Sdfsad fads f8ej iadshfiei hfisi hissar eahideaif oesai fefefsdf</tspan><tspan x="0" y="451">Sdfjsdjlkfdsf kdsjf. Dsfjiaeuifafl ciefh a</tspan><tspan x="0" y="475">As fiefhaisjcfae fhahes</tspan><tspan x="0" y="499" xml:space="preserve"> Asfihs fiaehfa </tspan><tspan x="0" y="523" xml:space="preserve"> Adsfie flash fiashf</tspan><tspan x="0" y="547"></tspan></text><rect class="d" width="335" height="251" transform="translate(50.5 364)"/><path class="e" d="M8.716,32.3H1364.375" transform="translate(47 141.129)"/><g class="f" transform="translate(57.5 37)"><circle class="k" cx="28.5" cy="28.5" r="28.5"/><circle class="l" cx="28.5" cy="28.5" r="28"/></g><text class="g" transform="translate(128.5 50)"><tspan x="0" y="24">iamtushar324</tspan></text><line class="e" x2="1365" transform="translate(50 803.5)"/><path class="h" d="M19.775,34.6a2.342,2.342,0,0,1-1.529-.565c-1.6-1.374-3.138-2.665-4.5-3.8l-.007-.006a83.084,83.084,0,0,1-9.819-9.063C1.247,17.989,0,14.978,0,11.689a12.04,12.04,0,0,1,3.138-8.3A10.719,10.719,0,0,1,11.049,0a10.056,10.056,0,0,1,6.214,2.109,12.6,12.6,0,0,1,2.512,2.58,12.6,12.6,0,0,1,2.513-2.58A10.056,10.056,0,0,1,28.5,0a10.72,10.72,0,0,1,7.911,3.386,12.04,12.04,0,0,1,3.137,8.3c0,3.289-1.246,6.3-3.922,9.475a83.066,83.066,0,0,1-9.818,9.063c-1.361,1.141-2.9,2.434-4.506,3.811A2.344,2.344,0,0,1,19.775,34.6ZM11.049,2.278A8.41,8.41,0,0,0,4.841,4.93a9.793,9.793,0,0,0-2.524,6.758c0,2.766,1.046,5.241,3.39,8.022a81.762,81.762,0,0,0,9.538,8.783l.007.006c1.364,1.143,2.911,2.439,4.52,3.823,1.619-1.387,3.168-2.685,4.535-3.83a81.776,81.776,0,0,0,9.538-8.783c2.344-2.782,3.39-5.256,3.39-8.022A9.793,9.793,0,0,0,34.71,4.93,8.409,8.409,0,0,0,28.5,2.278a7.767,7.767,0,0,0-4.8,1.633,11.107,11.107,0,0,0-2.673,3.042,1.475,1.475,0,0,1-2.512,0,11.1,11.1,0,0,0-2.673-3.042A7.767,7.767,0,0,0,11.049,2.278Zm0,0" transform="translate(57.95 821.913)"/><g transform="translate(56.5 821.828)"><path class="i" d="M41.233,12.391c0,3.487-1.3,6.68-4.089,10.045-2.5,3.012-6.083,6.069-10.237,9.608-1.419,1.209-3.028,2.58-4.7,4.041a2.42,2.42,0,0,1-1.58.6h-.014a2.418,2.418,0,0,1-1.594-.6c-1.666-1.457-3.272-2.826-4.689-4.034l-.007-.005c-4.153-3.54-7.742-6.6-10.237-9.609C1.3,19.071,0,15.878,0,12.391a12.888,12.888,0,0,1,3.271-8.8A11.087,11.087,0,0,1,11.519,0,10.372,10.372,0,0,1,18,2.236a13.231,13.231,0,0,1,2.619,2.735l.014-.019a13.226,13.226,0,0,1,2.605-2.716A10.371,10.371,0,0,1,29.714,0a11.085,11.085,0,0,1,8.248,3.59A12.886,12.886,0,0,1,41.233,12.391Zm0,0" transform="translate(0 0)"/></g><g transform="translate(1382.349 821.828)"><path class="j" d="M17.778,0A16.061,16.061,0,0,0,6.724,27.728l-.538,8.956,7.636-5.042A16.069,16.069,0,1,0,17.778,0Zm0,22.137H9.739a1.072,1.072,0,0,1,0-2.145h8.038a1.072,1.072,0,0,1,0,2.145Zm8.038-4.987H9.739a1.072,1.072,0,0,1,0-2.143H25.816a1.072,1.072,0,1,1,0,2.143Zm0-4.988H9.739a1.072,1.072,0,1,1,0-2.143H25.816a1.072,1.072,0,1,1,0,2.143Z" transform="translate(-1.701)"/></g></g></svg>